<mxfile host="app.diagrams.net" modified="2024-06-05T20:23:19.126Z" agent="Mozilla/5.0 (Windows NT 10.0; Win64; x64) AppleWebKit/537.36 (KHTML, like Gecko) Chrome/125.0.0.0 Safari/537.36" etag="882WKE1DLrWwtJdC7bQa" version="24.4.14" type="device">
  <diagram name="PÃ¡gina-1" id="OOLhiQYaRzrUzU_-95qS">
    <mxGraphModel dx="2271" dy="2065" grid="1" gridSize="10" guides="1" tooltips="1" connect="1" arrows="1" fold="1" page="1" pageScale="1" pageWidth="827" pageHeight="1169" math="0" shadow="0">
      <root>
        <mxCell id="0" />
        <mxCell id="1" parent="0" />
        <mxCell id="5I94mgKOTIEArTd720f6-1" value="" style="whiteSpace=wrap;html=1;aspect=fixed;" vertex="1" parent="1">
          <mxGeometry x="170" y="-110" width="440" height="440" as="geometry" />
        </mxCell>
        <mxCell id="5I94mgKOTIEArTd720f6-4" value="" style="curved=1;endArrow=classic;html=1;rounded=0;entryX=0;entryY=0.25;entryDx=0;entryDy=0;exitX=0.174;exitY=1.006;exitDx=0;exitDy=0;exitPerimeter=0;" edge="1" parent="1" source="5I94mgKOTIEArTd720f6-1" target="5I94mgKOTIEArTd720f6-1">
          <mxGeometry width="50" height="50" relative="1" as="geometry">
            <mxPoint x="310" y="320" as="sourcePoint" />
            <mxPoint x="380" y="110" as="targetPoint" />
            <Array as="points">
              <mxPoint x="250" y="160" />
            </Array>
          </mxGeometry>
        </mxCell>
        <mxCell id="5I94mgKOTIEArTd720f6-6" value="" style="curved=1;endArrow=classic;html=1;rounded=0;entryX=1;entryY=0.25;entryDx=0;entryDy=0;exitX=0.854;exitY=1.014;exitDx=0;exitDy=0;exitPerimeter=0;" edge="1" parent="1" source="5I94mgKOTIEArTd720f6-1" target="5I94mgKOTIEArTd720f6-1">
          <mxGeometry width="50" height="50" relative="1" as="geometry">
            <mxPoint x="500" y="330" as="sourcePoint" />
            <mxPoint x="360" y="-3" as="targetPoint" />
            <Array as="points">
              <mxPoint x="520" y="190" />
            </Array>
          </mxGeometry>
        </mxCell>
        <mxCell id="5I94mgKOTIEArTd720f6-19" value="REGIAO - A" style="shape=step;perimeter=stepPerimeter;whiteSpace=wrap;html=1;fixedSize=1;fillColor=#eeeeee;strokeColor=#36393d;" vertex="1" parent="1">
          <mxGeometry x="-30" y="-60" width="160" height="80" as="geometry" />
        </mxCell>
        <mxCell id="5I94mgKOTIEArTd720f6-20" value="REGIAO - B" style="shape=step;perimeter=stepPerimeter;whiteSpace=wrap;html=1;fixedSize=1;fillColor=#cdeb8b;strokeColor=#36393d;" vertex="1" parent="1">
          <mxGeometry x="-30" y="70" width="160" height="80" as="geometry" />
        </mxCell>
        <mxCell id="5I94mgKOTIEArTd720f6-21" value="REGIAO - C" style="shape=step;perimeter=stepPerimeter;whiteSpace=wrap;html=1;fixedSize=1;fillColor=#ffcccc;strokeColor=#36393d;" vertex="1" parent="1">
          <mxGeometry x="-30" y="210" width="160" height="80" as="geometry" />
        </mxCell>
        <mxCell id="5I94mgKOTIEArTd720f6-22" value="" style="endArrow=none;dashed=1;html=1;dashPattern=1 3;strokeWidth=2;rounded=0;" edge="1" parent="1">
          <mxGeometry width="50" height="50" relative="1" as="geometry">
            <mxPoint x="80" y="190" as="sourcePoint" />
            <mxPoint x="740" y="190" as="targetPoint" />
          </mxGeometry>
        </mxCell>
        <mxCell id="5I94mgKOTIEArTd720f6-23" value="" style="endArrow=none;dashed=1;html=1;dashPattern=1 3;strokeWidth=2;rounded=0;" edge="1" parent="1">
          <mxGeometry width="50" height="50" relative="1" as="geometry">
            <mxPoint x="84" y="40" as="sourcePoint" />
            <mxPoint x="744" y="40" as="targetPoint" />
          </mxGeometry>
        </mxCell>
        <mxCell id="5I94mgKOTIEArTd720f6-24" value="HIDDEN" style="shape=step;perimeter=stepPerimeter;whiteSpace=wrap;html=1;fixedSize=1;rotation=-90;fillColor=#f9f7ed;strokeColor=#36393d;" vertex="1" parent="1">
          <mxGeometry x="170" y="350" width="100" height="80" as="geometry" />
        </mxCell>
        <mxCell id="5I94mgKOTIEArTd720f6-25" value="HIDDEN" style="shape=step;perimeter=stepPerimeter;whiteSpace=wrap;html=1;fixedSize=1;rotation=-90;fillColor=#f9f7ed;strokeColor=#36393d;" vertex="1" parent="1">
          <mxGeometry x="510" y="350" width="100" height="80" as="geometry" />
        </mxCell>
        <mxCell id="5I94mgKOTIEArTd720f6-26" value="" style="endArrow=none;dashed=1;html=1;dashPattern=1 3;strokeWidth=2;rounded=0;" edge="1" parent="1">
          <mxGeometry width="50" height="50" relative="1" as="geometry">
            <mxPoint x="389.23" y="440" as="sourcePoint" />
            <mxPoint x="389.23" y="-160" as="targetPoint" />
          </mxGeometry>
        </mxCell>
        <mxCell id="5I94mgKOTIEArTd720f6-27" value="CENTER" style="edgeLabel;html=1;align=center;verticalAlign=middle;resizable=0;points=[];" vertex="1" connectable="0" parent="5I94mgKOTIEArTd720f6-26">
          <mxGeometry x="0.0695" y="-3" relative="1" as="geometry">
            <mxPoint y="1" as="offset" />
          </mxGeometry>
        </mxCell>
        <mxCell id="5I94mgKOTIEArTd720f6-28" value="- 2 QUADRANTES OBJETO PROXIMO&lt;div&gt;- 3 QUADRANTES MUITO PROXIMO&lt;/div&gt;&lt;div&gt;&lt;br&gt;&lt;/div&gt;&lt;div&gt;- TOCAR APENAS 1 QUADRANTE OBJETO PODE ESTAR DISTANTE&lt;/div&gt;&lt;div&gt;&lt;br&gt;&lt;/div&gt;&lt;div&gt;&lt;br&gt;&lt;/div&gt;" style="shape=internalStorage;whiteSpace=wrap;html=1;backgroundOutline=1;fillColor=#ffcccc;strokeColor=#36393d;" vertex="1" parent="1">
          <mxGeometry x="827" width="440" height="200" as="geometry" />
        </mxCell>
        <mxCell id="5I94mgKOTIEArTd720f6-29" value="1" style="shape=step;perimeter=stepPerimeter;whiteSpace=wrap;html=1;fixedSize=1;fillColor=#eeeeee;strokeColor=#36393d;rotation=90;size=25;" vertex="1" parent="1">
          <mxGeometry x="205" y="-220" width="110" height="80" as="geometry" />
        </mxCell>
        <mxCell id="5I94mgKOTIEArTd720f6-30" value="2" style="shape=step;perimeter=stepPerimeter;whiteSpace=wrap;html=1;fixedSize=1;fillColor=#eeeeee;strokeColor=#36393d;rotation=90;size=25;" vertex="1" parent="1">
          <mxGeometry x="430" y="-220" width="110" height="80" as="geometry" />
        </mxCell>
      </root>
    </mxGraphModel>
  </diagram>
</mxfile>
